# xmcd CD database file
#
# Track frame offsets:
#	150
#	24505
#	57292
#	82347
#	126995
#	143132
#	177515
#	195077
#	222570
#	245487
#	267505
#	291927
#
# Disc length: 4239 seconds
#
# Revision: 0
# Processed by: cddbd v1.5.1PL0 Copyright (c) Steve Scherf et al.
# Submitted via: CDex 1.51
#
DISCID=be108d0c
DTITLE=Various Artist - Best of Best Series
DYEAR=1900
DGENRE=Jazz
TTITLE0=Hampton Hawes - Autumn In NewYork
TTITLE1=Red Garland - Billy Boy
TTITLE2=Art Tatum - Love For Sale
TTITLE3=Sonny Clark - Be-Bop
TTITLE4=The Junior Mance - Junior's Tune
TTITLE5=Thelonious Monk - Blue Monk
TTITLE6=Bill Evans - Little Ruru
TTITLE7=Bud Powell - Body And Soul
TTITLE8=Ray Briant -Django
TTITLE9=Kenny Drew - Caravan
TTITLE10=Bobby Timmons - Data Dare
TTITLE11=Duke Pearson - Exodus
EXTD=
EXTT0=
EXTT1=
EXTT2=
EXTT3=
EXTT4=
EXTT5=
EXTT6=
EXTT7=
EXTT8=
EXTT9=
EXTT10=
EXTT11=
PLAYORDER=
